<svg id="Layer_25" data-name="Layer 25" xmlns="http://www.w3.org/2000/svg" viewBox="0 0 411.75 411.75"><defs><style>.cls-1{fill:#24a9e0;}.cls-2{fill:#b9d034;}.cls-3{fill:#2f4358;}</style></defs><circle class="cls-1" cx="205.87" cy="205.87" r="205.87"/><path class="cls-2" d="M329.34,1175.15a5.58,5.58,0,0,0-2.55,1.13c-10,6.51-19.93,13.32-30.34,19.12-20.9,11.66-42.87,20.61-66.19,25.62-1.66.35-2.83.83-2.89,3.19-.52,19.15.58,38,4.52,56.73a173.33,173.33,0,0,0,6.57,24.06h90Z" transform="translate(-123.59 -1086.87)"/><path class="cls-2" d="M327.76,1421.87c30.7-20.51,55.14-47.17,73.58-79.63A204.37,204.37,0,0,0,418,1305H328.51Z" transform="translate(-123.59 -1086.87)"/><path class="cls-3" d="M429.27,1223.93c-.09-2.5-1.07-3.27-3.14-3.74-34.32-7.8-65.49-23-94.2-43.86a4.11,4.11,0,0,0-2.59-1l-.83,130H418C426.7,1279.5,430.3,1252.3,429.27,1223.93Z" transform="translate(-123.59 -1086.87)"/><path class="cls-3" d="M238.46,1305.36a223.44,223.44,0,0,0,40.93,72.77,226.69,226.69,0,0,0,48.37,43.92l.75-116.69Z" transform="translate(-123.59 -1086.87)"/></svg>