<svg xmlns="http://www.w3.org/2000/svg" xmlns:xlink="http://www.w3.org/1999/xlink" viewBox="0 0 131.68 128.1"><defs><style>.cls-1{isolation:isolate;}.cls-2{fill:#e1f3ff;}.cls-3{fill:#ff1d9c;}.cls-4{fill:#a74aff;}.cls-5{fill:#4f31e0;}.cls-6{fill:#6877ff;}.cls-7{fill:url(#Безымянный_градиент_373);}.cls-8{fill:url(#Безымянный_градиент_49);}.cls-9{fill:url(#Безымянный_градиент_29);}.cls-10{fill:url(#Безымянный_градиент_49-2);}.cls-11{fill:#bde0ff;}.cls-11,.cls-14,.cls-30,.cls-31,.cls-32{mix-blend-mode:soft-light;}.cls-12{fill:url(#Безымянный_градиент_29-2);}.cls-13{fill:url(#Безымянный_градиент_26);}.cls-14,.cls-24,.cls-25{fill:#fff;}.cls-15{fill:url(#Безымянный_градиент_29-3);}.cls-16{fill:url(#Безымянный_градиент_6);}.cls-17{fill:url(#Безымянный_градиент_30);}.cls-18{fill:url(#Безымянный_градиент_373-2);}.cls-19{fill:url(#Безымянный_градиент_373-3);}.cls-20{fill:url(#Безымянный_градиент_373-4);}.cls-21{fill:url(#Безымянный_градиент_373-5);}.cls-22{fill:url(#Безымянный_градиент_373-6);}.cls-23{fill:url(#Безымянный_градиент_373-7);}.cls-24{opacity:0.73;}.cls-26{fill:url(#Безымянный_градиент_90);}.cls-27{fill:url(#Безымянный_градиент_6-2);}.cls-28{mix-blend-mode:multiply;opacity:0.4;fill:url(#Безымянный_градиент_55);}.cls-29{fill:url(#Безымянный_градиент_45);}.cls-30{fill:url(#Безымянный_градиент_264);}.cls-31{fill:url(#Безымянный_градиент_264-2);}.cls-32{fill:url(#Безымянный_градиент_264-3);}.cls-33{fill:#a181c9;}.cls-34{mix-blend-mode:screen;fill:url(#Безымянный_градиент_60);}</style><linearGradient id="Безымянный_градиент_373" x1="107.08" y1="152.05" x2="107.08" y2="149.25" gradientUnits="userSpaceOnUse"><stop offset="0" stop-color="#1c257b"/><stop offset="1" stop-color="#482c83"/></linearGradient><linearGradient id="Безымянный_градиент_49" x1="119.43" y1="163.77" x2="119.43" y2="132.58" gradientUnits="userSpaceOnUse"><stop offset="0" stop-color="#1c257b"/><stop offset="1" stop-color="#6a2c9a"/></linearGradient><radialGradient id="Безымянный_градиент_29" cx="144.5" cy="124.64" r="25.7" gradientUnits="userSpaceOnUse"><stop offset="0" stop-color="#3996f7"/><stop offset="1" stop-color="#6840d5"/></radialGradient><linearGradient id="Безымянный_градиент_49-2" x1="68.51" y1="161.5" x2="68.51" y2="117.75" xlink:href="#Безымянный_градиент_49"/><radialGradient id="Безымянный_градиент_29-2" cx="62.79" cy="150.7" r="11.65" xlink:href="#Безымянный_градиент_29"/><linearGradient id="Безымянный_градиент_26" x1="107.08" y1="163.89" x2="107.08" y2="91.58" gradientTransform="translate(204.98 -7.16) rotate(75.94)" gradientUnits="userSpaceOnUse"><stop offset="0" stop-color="#4c25a6"/><stop offset="0.6" stop-color="#457ae2"/><stop offset="1" stop-color="#6dd9f7"/></linearGradient><radialGradient id="Безымянный_градиент_29-3" cx="109.6" cy="98.06" r="49.06" gradientTransform="translate(205.01 -7.21) rotate(76.52)" xlink:href="#Безымянный_градиент_29"/><linearGradient id="Безымянный_градиент_6" x1="107.08" y1="152.84" x2="107.08" y2="99.92" gradientTransform="translate(205.12 -7.13) rotate(76.56)" gradientUnits="userSpaceOnUse"><stop offset="0" stop-color="#ddcdff"/><stop offset="1" stop-color="#9f9cff"/></linearGradient><linearGradient id="Безымянный_градиент_30" x1="107.08" y1="151.8" x2="107.08" y2="104.17" gradientTransform="translate(206.71 -5.88) rotate(76.58)" gradientUnits="userSpaceOnUse"><stop offset="0" stop-color="#eef0ff"/><stop offset="1" stop-color="#ddcdff"/></linearGradient><linearGradient id="Безымянный_градиент_373-2" x1="75.06" y1="73.6" x2="75.06" y2="51.64" xlink:href="#Безымянный_градиент_373"/><linearGradient id="Безымянный_градиент_373-3" x1="81.98" y1="74.92" x2="81.98" y2="71.62" xlink:href="#Безымянный_градиент_373"/><linearGradient id="Безымянный_градиент_373-4" x1="107.61" y1="128.16" x2="107.61" y2="123.34" xlink:href="#Безымянный_градиент_373"/><linearGradient id="Безымянный_градиент_373-5" x1="53.73" y1="74.36" x2="53.73" y2="71.56" xlink:href="#Безымянный_градиент_373"/><linearGradient id="Безымянный_градиент_373-6" x1="95.77" y1="74.36" x2="95.77" y2="71.56" xlink:href="#Безымянный_градиент_373"/><linearGradient id="Безымянный_градиент_373-7" x1="75.32" y1="53.04" x2="75.32" y2="50.24" xlink:href="#Безымянный_градиент_373"/><linearGradient id="Безымянный_градиент_90" x1="106.42" y1="178.56" x2="106.42" y2="157.69" gradientUnits="userSpaceOnUse"><stop offset="0" stop-color="#d1bbff"/><stop offset="1" stop-color="#efeaff"/></linearGradient><linearGradient id="Безымянный_градиент_6-2" x1="106.55" y1="176.78" x2="106.55" y2="160.14" gradientTransform="matrix(1, 0, 0, 1, 0, 0)" xlink:href="#Безымянный_градиент_6"/><linearGradient id="Безымянный_градиент_55" x1="106.55" y1="167.83" x2="106.55" y2="160.2" gradientUnits="userSpaceOnUse"><stop offset="0" stop-color="#fff"/><stop offset="1" stop-color="#7460e0"/></linearGradient><linearGradient id="Безымянный_градиент_45" x1="88.06" y1="176.4" x2="88.06" y2="160.06" gradientUnits="userSpaceOnUse"><stop offset="0" stop-color="#b31a8f"/><stop offset="0.01" stop-color="#b51a8f"/><stop offset="0.15" stop-color="#d01789"/><stop offset="0.3" stop-color="#e41484"/><stop offset="0.47" stop-color="#f31281"/><stop offset="0.68" stop-color="#fb117f"/><stop offset="1" stop-color="#fe117e"/></linearGradient><linearGradient id="Безымянный_градиент_264" x1="45.23" y1="122.81" x2="45.23" y2="107.28" gradientUnits="userSpaceOnUse"><stop offset="0" stop-color="#b9acf4"/><stop offset="1" stop-color="#e1d1f5"/></linearGradient><linearGradient id="Безымянный_градиент_264-2" x1="55.92" y1="123.13" x2="55.92" y2="107.29" xlink:href="#Безымянный_градиент_264"/><linearGradient id="Безымянный_градиент_264-3" x1="67.42" y1="123.34" x2="67.42" y2="107.57" xlink:href="#Безымянный_градиент_264"/><linearGradient id="Безымянный_градиент_60" x1="123.45" y1="176.78" x2="123.45" y2="172" gradientUnits="userSpaceOnUse"><stop offset="0" stop-color="#fff"/><stop offset="1"/></linearGradient></defs><g class="cls-1"><g id="icons"><path class="cls-2" d="M134.18,148.2c-18.57,21-34.33,22.28-46.43,6.57-16.68-21.67-47.31-11-49.48-38.16s48.81-69.27,82.62-63.24S168.55,109.37,134.18,148.2Z" transform="translate(-32.29 -52.79)"/><path class="cls-2" d="M57,142.2c-8.53-5.64-18.2,1.63-18.66,7.64S57,157.52,60,155.14,59.37,143.76,57,142.2Z" transform="translate(-32.29 -52.79)"/><polygon class="cls-3" points="84.5 15.66 95.47 22.09 93.12 25.9 82.79 19 84.5 15.66"/><polygon class="cls-4" points="0 52.47 10.84 44.02 13.47 47.67 3.54 55.53 0 52.47"/><polygon class="cls-5" points="42.43 23.45 41.74 31.59 39.09 31.27 39.66 23.76 42.43 23.45"/><polygon class="cls-6" points="123.77 54.31 129.45 60.55 131.68 57.97 126.31 52.07 123.77 54.31"/><path class="cls-7" d="M108.48,150.65a1.4,1.4,0,1,1-1.4-1.4A1.4,1.4,0,0,1,108.48,150.65Z" transform="translate(-32.29 -52.79)"/><path class="cls-8" d="M86.15,161.5s-9.82-12.75-6.7-28.92c0,0,24.2,12.53,25.21,27.77l16.76.42s19.15-17,38.59-17.9c0,0-3,18.63-20.41,20.9Z" transform="translate(-32.29 -52.79)"/><path class="cls-9" d="M126.43,157.83s1.1-30.46,33.58-36.41c0,0,3.37,29.17-29.64,36.6Z" transform="translate(-32.29 -52.79)"/><path class="cls-10" d="M71.75,161.45S51.91,152,50.87,117.75c0,0,26.73,3.21,35.28,43.75Z" transform="translate(-32.29 -52.79)"/><path class="cls-11" d="M160,121.42l-33.58,36.41,4.93-1S159.36,150.65,160,121.42Z" transform="translate(-32.29 -52.79)"/><path class="cls-11" d="M52.49,119.82l27,41.65-6.81-.75S51.6,147.14,52.49,119.82Z" transform="translate(-32.29 -52.79)"/><path class="cls-12" d="M81.85,159.33S68,142.54,52,151.78C52,151.78,62.33,170.46,81.85,159.33Z" transform="translate(-32.29 -52.79)"/><path class="cls-11" d="M52,151.78l28.6,6.61S66.45,170,52,151.78Z" transform="translate(-32.29 -52.79)"/><circle class="cls-13" cx="107.08" cy="127.73" r="36.16" transform="translate(-75.13 147.8) rotate(-75.94)"/><path class="cls-14" d="M106.21,94.44V91.58a35.32,35.32,0,0,1,27.78,12l-2.31,1.69A34,34,0,0,0,106.21,94.44Z" transform="translate(-32.29 -52.79)"/><path class="cls-14" d="M134,108.1l2.43-1.5a35.66,35.66,0,0,1,4,7.05l-2.83.64A35.9,35.9,0,0,0,134,108.1Z" transform="translate(-32.29 -52.79)"/><circle class="cls-15" cx="107.08" cy="126.38" r="34.38" transform="translate(-73.08 148.25) rotate(-76.52)"/><circle class="cls-16" cx="107.08" cy="126.38" r="26.46" transform="translate(-73.02 148.38) rotate(-76.56)"/><circle class="cls-17" cx="107.08" cy="127.98" r="23.82" transform="translate(-74.56 149.64) rotate(-76.58)"/><polygon class="cls-18" points="73.08 73.6 74.48 51.64 75.79 51.64 77.04 73.6 73.08 73.6"/><polygon class="cls-19" points="75.06 74.92 74.83 71.62 89.13 72.34 89.13 73.6 75.06 74.92"/><path class="cls-20" d="M110,125.75a2.41,2.41,0,1,1-2.41-2.41A2.41,2.41,0,0,1,110,125.75Z" transform="translate(-32.29 -52.79)"/><circle class="cls-21" cx="53.73" cy="72.96" r="1.4"/><circle class="cls-22" cx="95.77" cy="72.96" r="1.4"/><circle class="cls-23" cx="75.32" cy="51.64" r="1.4"/><path class="cls-24" d="M101.08,101.63l3,8.42s12.72.19,19.05,7.94l6.34-3.12C128.06,109.45,116.79,97.87,101.08,101.63Z" transform="translate(-32.29 -52.79)"/><path class="cls-14" d="M91.83,146.42l3.08-4.31s7,4.91,17.8,4.18l1.56,4.66A25.88,25.88,0,0,1,91.83,146.42Z" transform="translate(-32.29 -52.79)"/><path class="cls-25" d="M114.27,92.76s4.25,11.18,13.49,6.16A29.9,29.9,0,0,0,114.27,92.76Z" transform="translate(-32.29 -52.79)"/><path class="cls-26" d="M68.51,177.65l-1.23-19.07s38.7-1.86,78.29-.19l-2.23,20.17Z" transform="translate(-32.29 -52.79)"/><path class="cls-27" d="M71.05,176l-.66-15.68s35.4-.76,72.32.62l-1.26,15.81Z" transform="translate(-32.29 -52.79)"/><path class="cls-28" d="M142.71,161a14.05,14.05,0,0,0-3.31,6.86l-66-.88-3-6.6S126.39,159.75,142.71,161Z" transform="translate(-32.29 -52.79)"/><path class="cls-29" d="M70.39,160.35,71,175.6l34.77.8-1.07-16.05S92.74,159.7,70.39,160.35Z" transform="translate(-32.29 -52.79)"/><polygon class="cls-30" points="38.5 121.23 48.67 107.28 51.96 107.28 41.1 122.81 38.67 122.81 38.5 121.23"/><polygon class="cls-31" points="48.77 123 59.99 107.29 63.07 107.32 52.71 123.13 48.77 123"/><polygon class="cls-32" points="62.22 123.34 72.37 107.57 72.62 111.22 65.08 123.34 62.22 123.34"/><polygon class="cls-33" points="36.22 124.86 38.5 127.41 108.64 128.1 111.05 125.77 36.22 124.86"/><path class="cls-14" d="M70.39,160.35l.22,5.71H105l-.38-5.71S92.92,160.08,70.39,160.35Z" transform="translate(-32.29 -52.79)"/><path class="cls-25" d="M95.36,160.11s4.13,4.19,9.68.07Z" transform="translate(-32.29 -52.79)"/><path class="cls-25" d="M101.08,157.73s2.22,2.39,7.4,2.33,6.94-2.33,6.94-2.33S103.22,157.71,101.08,157.73Z" transform="translate(-32.29 -52.79)"/><path class="cls-14" d="M73.39,175.6s20.57-3.19,29.66.74Z" transform="translate(-32.29 -52.79)"/><path class="cls-34" d="M141.45,176.78s-1.55-.59-2.33-4.78H105.44l.29,4.4Z" transform="translate(-32.29 -52.79)"/><path class="cls-25" d="M125.51,176.53s5.33-3,9.17.18Z" transform="translate(-32.29 -52.79)"/><path class="cls-2" d="M155.19,60.49c-.67-7.07-8.81-9.13-12.27-6.76s4,13.45,6.57,14S155.37,62.44,155.19,60.49Z" transform="translate(-32.29 -52.79)"/></g></g></svg>