<svg xmlns="http://www.w3.org/2000/svg" viewBox="0 0 780.39 500.87"><defs><style>.cls-1{fill:#fbb040;}.cls-2{fill:#c770c1;}.cls-3{fill:#99dff9;}</style></defs><g id="Слой_2" data-name="Слой 2"><g id="Layer_1" data-name="Layer 1"><circle class="cls-1" cx="388.54" cy="96.35" r="74.3"/><path class="cls-2" d="M280.6,243.09H499.79a81.75,81.75,0,0,1,81.75,81.75v0a0,0,0,0,1,0,0H198.85a0,0,0,0,1,0,0v0A81.75,81.75,0,0,1,280.6,243.09Z"/><path class="cls-3" d="M96.84,432.82a17.6,17.6,0,0,0,17.61,17.6h65.67l3.37,46.67h15.08L202,450.42H581.22l3.37,46.67h15.08l3.38-46.67h65.47a20,20,0,0,0,20-20v-2c0-90,19.33-178.59,53.21-262A89.2,89.2,0,0,0,608.93,59.13a44.29,44.29,0,0,0-19,38.45v256.6H195.44V97.58a44.32,44.32,0,0,0-19-38.45A89.2,89.2,0,0,0,43.64,166.39c33.87,83.39,53.2,172,53.2,262Z"/><path d="M595.74,345H180v-4.64a92.56,92.56,0,0,1,92.46-92.46H507.92a92.56,92.56,0,0,1,92.46,92.46V345Zm-406.31-9.29H591a83.27,83.27,0,0,0-83-78.52H272.47A83.27,83.27,0,0,0,189.43,335.72Z"/><path d="M618.94,500.87H594l-3.66-50.61H187.69L184,500.87H159l-3.66-50.61H88.49a23.76,23.76,0,0,1-23.73-23.74v-4.84c0-93.64-19.3-188.62-57.35-282.29A101.24,101.24,0,0,1,86,1.12,101.81,101.81,0,0,1,158.35,17.5c14.63,10,23.29,27.43,22.6,45.61v273.5H599.44V63.12c-.68-18.19,8-35.66,22.6-45.62A101.37,101.37,0,0,1,773,139.39c-38.06,93.68-57.35,188.67-57.35,282.31v2.2a26.39,26.39,0,0,1-26.36,26.36H622.6Zm-16.35-9.3h7.71L614,441h75.32a17.09,17.09,0,0,0,17.07-17.07v-2.2c0-94.85,19.52-191,58-285.81A92.09,92.09,0,0,0,693,10.31a92.6,92.6,0,0,0-65.76,14.87c-12,8.19-19.13,22.62-18.54,37.66V345.9H171.66V62.84c.6-15-6.51-29.47-18.54-37.66A92.5,92.5,0,0,0,87.36,10.31,92.1,92.1,0,0,0,16,135.89c38.5,94.79,58,190.94,58,285.79v4.84A14.46,14.46,0,0,0,88.49,441H164l3.66,50.6h7.71L179,441h419.9Z"/><path d="M382.39,115H316.72v-3.1a62.64,62.64,0,0,1,62.57-62.57h3.1Zm-59.4-6.2h53.2V55.65A56.46,56.46,0,0,0,323,108.84Z"/><path d="M449.92,115H387.34V49.37h3.1A62.64,62.64,0,0,1,453,111.94V115Zm-56.38-6.2h53.2a56.46,56.46,0,0,0-53.2-53.19Z"/><path d="M382.39,185.67H316.72V120h65.67Zm-59.48-6.2h53.28V126.19H322.91Z"/><path d="M453,185.67H387.34V120H453Zm-59.48-6.2h53.28V126.19H393.54Z"/></g></g></svg>